<?xml version="1.0" standalone="no"?>
<!DOCTYPE svg PUBLIC "-//W3C//DTD SVG 20010904//EN"
 "http://www.w3.org/TR/2001/REC-SVG-20010904/DTD/svg10.dtd">
<svg version="1.0" xmlns="http://www.w3.org/2000/svg"
 width="500.000000pt" height="500.000000pt" viewBox="0 0 500.000000 500.000000"
 preserveAspectRatio="xMidYMid meet">
<metadata>
Created by potrace 1.14, written by Peter Selinger 2001-2017
</metadata>
<g transform="translate(0.000000,500.000000) scale(0.100000,-0.100000)"
fill="#000000" stroke="none">
<path d="M0 2500 l0 -2500 2500 0 2500 0 0 2500 0 2500 -2500 0 -2500 0 0
-2500z m3017 580 c48 -29 66 -72 60 -144 -2 -34 -39 -192 -81 -352 -80 -308
-91 -361 -106 -517 -11 -120 -29 -158 -84 -171 -50 -13 -69 0 -80 54 -13 58
-1 120 98 525 46 187 83 341 81 343 -3 3 -19 -26 -160 -283 -120 -219 -124
-227 -189 -315 -69 -95 -153 -174 -215 -202 -41 -19 -46 -19 -77 -5 -98 47
-101 144 -14 487 28 108 50 205 50 215 -1 20 -1 20 -15 0 -9 -10 -61 -109
-116 -220 -108 -212 -299 -560 -328 -596 -37 -46 -91 10 -91 93 0 30 11 62 37
108 19 36 49 90 65 120 31 59 225 402 316 560 30 52 72 127 94 165 44 79 74
115 96 115 26 0 76 -37 96 -71 27 -47 17 -159 -39 -414 -65 -293 -75 -348 -67
-362 4 -7 12 -9 18 -5 19 12 196 288 294 457 133 229 231 386 257 413 27 27
58 28 100 2z m682 -1 c28 -12 51 -26 51 -30 0 -5 7 -9 16 -9 27 0 121 -98 144
-152 18 -42 20 -61 15 -109 -4 -32 -15 -69 -24 -81 -9 -13 -23 -36 -30 -53
-27 -62 -104 -166 -162 -219 -50 -45 -75 -59 -155 -85 -52 -17 -128 -36 -169
-41 -42 -5 -84 -14 -94 -20 -13 -6 -37 -64 -77 -187 -31 -98 -64 -186 -72
-195 -21 -25 -54 -22 -81 6 -33 35 -29 102 13 251 20 68 36 131 36 140 0 9 9
33 20 53 18 34 34 81 96 272 14 41 45 130 70 197 36 100 43 129 38 162 -5 30
-2 48 11 67 27 42 68 53 191 54 92 0 120 -4 163 -21z"/>
<path d="M3532 2943 c-23 -9 -98 -173 -151 -330 -28 -84 -51 -159 -51 -168 0
-21 47 -19 123 6 138 46 216 112 270 227 76 163 28 273 -118 271 -33 0 -66 -3
-73 -6z"/>
</g>
</svg>
